<svg width="30" height="26" fill="none" xmlns="http://www.w3.org/2000/svg"><path d="M9.434.52a5.16 5.16 0 0 0-5.017 3.955l-.593 2.468A1.939 1.939 0 0 1 1.94 8.43h-.796C.512 8.43 0 8.94 0 9.573v.548c0 .329.266.595.595.595.328 0 .594.266.594.595v12.464c0 .943.765 1.707 1.707 1.707h.499c.667 0 1.209-.541 1.209-1.209 0-.667.54-1.208 1.208-1.208h18.376c.667 0 1.209.54 1.209 1.208 0 .668.54 1.209 1.208 1.209h.498c.942 0 1.706-.764 1.706-1.706V11.312c0-.33.267-.596.595-.596A.596.596 0 0 0 30 10.12v-.547c0-.632-.512-1.143-1.143-1.143h-.796a1.939 1.939 0 0 1-1.885-1.487l-.593-2.468A5.16 5.16 0 0 0 20.566.52H9.434ZM6.378 2.058H21.11a3.186 3.186 0 1 1 0 6.372H8.89A3.186 3.186 0 0 1 5.792 4.5l.586-2.442Zm-4.2 12.13c0-.746.742-1.264 1.442-1.005l2.618.967a1.072 1.072 0 0 1-.743 2.01l-2.617-.967c-.421-.155-.7-.556-.7-1.005Zm24.2-1.006a1.072 1.072 0 0 1 .742 2.011l-2.615.966a1.072 1.072 0 1 1-.743-2.011l2.616-.966ZM10.396 19.77c0-.63.511-1.142 1.142-1.142h6.92a1.142 1.142 0 0 1 0 2.284h-6.92c-.63 0-1.142-.511-1.142-1.142Z" fill="url('#paint0_linear_1478_17766')"/><defs><linearGradient id="paint0_linear_1478_17766" x1="10.611" y1="3.857" x2="14.272" y2="25.605" gradientUnits="userSpaceOnUse"><stop offset="0" stop-color="#fff"/><stop offset="1" stop-color="#fff"/></linearGradient></defs></svg>