<svg xmlns="http://www.w3.org/2000/svg" width="48" height="48" fill="none"><g clip-path="url('#clip0_1616_89')"><path d="M24 48c13.255 0 24-10.745 24-24S37.255 0 24 0 0 10.745 0 24s10.745 24 24 24Z" fill="#2196F3"/><path d="M36 28.962c-2.589 0-5.058-.564-7.335-1.677a1.525 1.525 0 0 0-1.149-.069 1.513 1.513 0 0 0-.861.765l-1.08 2.235a21.123 21.123 0 0 1-7.791-7.791l2.238-1.08a1.503 1.503 0 0 0 .696-2.01c-1.116-2.274-1.68-4.743-1.68-7.335a1.5 1.5 0 0 0-1.5-1.5H12a1.5 1.5 0 0 0-1.5 1.5c0 14.061 11.439 25.5 25.5 25.5a1.5 1.5 0 0 0 1.5-1.5v-5.538a1.5 1.5 0 0 0-1.5-1.5Z" fill="#FAFAFA"/></g><defs><clipPath id="clip0_1616_89"><path fill="#fff" d="M0 0h48v48H0z"/></clipPath></defs></svg>