<svg width="30" height="27" fill="none" xmlns="http://www.w3.org/2000/svg"><path d="M23.12 12.77a1.703 1.703 0 0 1 0 1.697l-3.338 5.76a1.698 1.698 0 0 1-1.467.846h-6.642a1.699 1.699 0 0 1-1.455-.846l-3.339-5.76a1.704 1.704 0 0 1 0-1.697l1.844-3.18 4.104 7.018a.768.768 0 0 0 .678.391h2.99a.768.768 0 0 0 .678-.391l1.494-2.61a.77.77 0 0 0 0-.77L11.93 1.57A2.664 2.664 0 0 0 9.626.24h-.604a3.043 3.043 0 0 0-2.636 1.522L.408 12.1a3.04 3.04 0 0 0 0 3.043l5.978 10.339A3.042 3.042 0 0 0 9.022 27h11.956a3.042 3.042 0 0 0 2.636-1.521l5.978-10.339a3.04 3.04 0 0 0 0-3.043L23.614 1.76A3.043 3.043 0 0 0 20.978.237h-5.081L23.12 12.77Z" fill="#fff"/></svg>