<svg width="50" height="50" fill="none" xmlns="http://www.w3.org/2000/svg"><mask id="mask0_1479_21424" style="mask-type:alpha" maskUnits="userSpaceOnUse" x="0" y="0" width="50" height="50"><path d="M25 50c13.807 0 25-11.193 25-25S38.807 0 25 0 0 11.193 0 25s11.193 25 25 25Z" fill="#000"/></mask><g mask="url('#mask0_1479_21424')"><path d="M25 50c13.807 0 25-11.193 25-25S38.807 0 25 0 0 11.193 0 25s11.193 25 25 25Z" fill="#192333"/><path d="M41.53 43.756 19.206 15H15v19.992h3.365V19.273L38.889 45.79a25.09 25.09 0 0 0 2.641-2.034Z" fill="url('#paint0_linear_1479_21424')"/><path d="M35.279 15h-3.334v20h3.334V15Z" fill="url('#paint1_linear_1479_21424')"/></g><defs><linearGradient id="paint0_linear_1479_21424" x1="30.278" y1="32.361" x2="40.139" y2="44.583" gradientUnits="userSpaceOnUse"><stop stop-color="#fff"/><stop offset="1" stop-color="#fff" stop-opacity="0"/></linearGradient><linearGradient id="paint1_linear_1479_21424" x1="33.612" y1="15" x2="33.556" y2="29.688" gradientUnits="userSpaceOnUse"><stop stop-color="#fff"/><stop offset="1" stop-color="#fff" stop-opacity="0"/></linearGradient></defs></svg>