<svg width="30" height="30" fill="none" xmlns="http://www.w3.org/2000/svg"><path fill-rule="evenodd" clip-rule="evenodd" d="M27.833 15c0 7.088-5.745 12.833-12.833 12.833S2.167 22.088 2.167 15 7.912 2.167 15 2.167 27.833 7.912 27.833 15ZM30 15c0 8.284-6.716 15-15 15-8.284 0-15-6.716-15-15C0 6.716 6.716 0 15 0c8.284 0 15 6.716 15 15Zm-6.724-6.724a1.552 1.552 0 1 1-3.103 0 1.552 1.552 0 0 1 3.103 0ZM10.488 16.21a4.671 4.671 0 1 0 9.024-2.418 4.671 4.671 0 0 0-9.024 2.418Zm-2.093.56a6.838 6.838 0 1 0 13.21-3.54 6.838 6.838 0 0 0-13.21 3.54Z" fill="url('#paint0_linear_1478_19845')"/><defs><linearGradient id="paint0_linear_1478_19845" x1="15" y1="0" x2="15" y2="30" gradientUnits="userSpaceOnUse"><stop stop-color="#fff"/><stop offset=".461" stop-color="#fff"/><stop offset="1" stop-color="#fff"/></linearGradient></defs></svg>