<svg width="31" height="30" fill="none" xmlns="http://www.w3.org/2000/svg"><path d="M18.252 0c-1.517 0-2.721 1.316-2.767 2.909a.39.39 0 0 0-.003.05v.017l-.001.025.001.04-.004 1.918a.4.4 0 0 0 .009.085v.002c.028.881.345 1.69.857 2.312a3.82 3.82 0 0 0-.871 2.413.4.4 0 0 0-.004.057l-.013 6.847V16.732c0 .023.002.046.006.068v.002c.018 1.018.415 1.942 1.061 2.599-.668.675-1.075 1.638-1.075 2.684a.409.409 0 0 0-.002.04l-.009 4.87v.055c0 .024.002.048.006.071.06 1.58 1.258 2.879 2.766 2.879.945 0 1.768-.512 2.267-1.282.155.075.316.14.486.188 1.706.474 3.438-.673 3.858-2.491.017-.074.028-.148.04-.221 1.527.576 3.282-.084 4.124-1.636a4.025 4.025 0 0 0-.024-3.857c.44-.395.816-.887 1.098-1.465 1.058-2.172.448-4.826-1.371-6.21.223-.49.354-1.038.354-1.62 0-1.788-1.199-3.304-2.798-3.603.669-1.722.192-3.768-1.267-4.918a3.54 3.54 0 0 0-3.981-.299C20.807 1.143 19.665 0 18.252 0Zm-3.406.006c-.95.008-1.897.106-2.828.293L12.02.3l.036.076.008.02a2.931 2.931 0 0 1-5.407 2.265 2.946 2.946 0 0 1-.038-.104c-1.613 1.09-3 2.482-4.08 4.101.629.31 1.127.834 1.403 1.479l.008.02a2.931 2.931 0 0 1-1.573 3.83 2.93 2.93 0 0 1-2.08.068 15.013 15.013 0 0 0-.004 5.92 2.93 2.93 0 0 1 3.932 1.508l.008.021a2.931 2.931 0 0 1-1.573 3.83 2.924 2.924 0 0 1-.115.042 15.014 15.014 0 0 0 4.177 4.142 2.931 2.931 0 0 1 5.386.02l.008.021c.288.694.298 1.472.029 2.173a15 15 0 0 0 2.701.262V21.14A6.146 6.146 0 0 1 9.34 17.39a6.145 6.145 0 0 1 3.269-8.044c.71-.298 1.469-.46 2.238-.478V.005Zm3.406.785c1.078 0 1.981.966 1.981 2.21 0 .046.007.09.022.134a3.926 3.926 0 0 0-.583.695.396.396 0 1 0 .662.433c.978-1.494 2.805-1.818 4.153-.757 1.348 1.062 1.668 3.165.69 4.659-.557.85-1.392 1.311-2.253 1.365-.086.005-.173.002-.26-.001-.02-.92-.377-1.826-1.065-2.488.388-.591.62-1.31.628-2.082a.396.396 0 1 0-.791-.008c-.015 1.609-1.198 2.856-2.608 2.84-1.41-.016-2.571-1.291-2.556-2.9l-.001-.04-.002-.007.004-1.675v-.194c.013-1.232.91-2.184 1.98-2.184Zm2.84 6.862c.952.961 1.046 2.623.187 3.706-.068.086-.14.166-.215.239-.034.033-.071.06-.106.091-.028-.039-.053-.08-.082-.118-.517-.675-1.272-1.139-2.15-1.224a.393.393 0 0 0-.317.104.396.396 0 0 0 .24.683c1.29.126 2.278 1.393 2.159 2.87a2.9 2.9 0 0 1-.13.658.394.394 0 0 0 .407.524.396.396 0 0 0 .345-.28 3.697 3.697 0 0 0-.085-2.508c.2-.157.387-.338.553-.548.361-.455.594-.983.7-1.53a3.61 3.61 0 0 0 2.75-1.111c.179-.182.343-.386.49-.61.011-.017.02-.035.03-.052 1.319.114 2.382 1.328 2.382 2.86 0 .413-.078.804-.219 1.158l-.018.039a4.15 4.15 0 0 0-1.472-.439 4.1 4.1 0 0 0-1.433.117c-.15-.421-.434-.791-.835-1.032a.396.396 0 1 0-.407.678c.522.313.734 1.077.434 1.678a1.22 1.22 0 0 1-.164.25.396.396 0 1 0 .6.513c.105-.122.196-.26.272-.41a2.14 2.14 0 0 0 .222-.892 3.302 3.302 0 0 1 2.611.338c1.776 1.04 2.469 3.506 1.506 5.484-.478.98-1.26 1.644-2.137 1.944-.395.134-.786.098-1.207-.122-.42-.22-.86-.637-1.258-1.258l-.006-.01a2.58 2.58 0 0 0 .957-1.916.395.395 0 1 0-.79-.033c-.041.975-.772 1.684-1.604 1.643a1.382 1.382 0 0 1-.374-.071.398.398 0 0 0-.502.249.394.394 0 0 0 .25.5 2.148 2.148 0 0 0 1.37.003c.009.022.02.042.033.062.452.707.977 1.23 1.558 1.533.58.303 1.227.373 1.828.168.295-.1.579-.237.849-.402.461.899.492 2.048-.025 3-.718 1.324-2.162 1.787-3.382 1.174-.086-1.427-.99-2.704-2.35-3.093a2.665 2.665 0 0 0-.422-1.936.396.396 0 1 0-.653.447c.524.765.376 1.876-.31 2.44-.107.088-.219.158-.334.21a.398.398 0 0 0-.212.53.396.396 0 0 0 .538.19c.18-.081.352-.188.511-.32a2.48 2.48 0 0 0 .64-.81l.008.003c1.26.35 2.057 1.787 1.725 3.222-.248 1.076-1.032 1.808-1.94 1.959a2.134 2.134 0 0 1-1.292-.19 3.2 3.2 0 0 0 .164-1.007.396.396 0 1 0-.79 0c0 1.167-.795 2.089-1.782 2.2a1.783 1.783 0 0 1-.2.01c-1.077 0-1.98-.964-1.98-2.208v-.002l.009-4.729a.397.397 0 0 0 0-.048c-.068-1.582 1.017-2.887 2.395-2.997.15.408.401.781.752 1.07a2.3 2.3 0 0 0 .511.32.394.394 0 0 0 .538-.5.394.394 0 0 0-.212-.22 1.506 1.506 0 0 1-.334-.21c-.686-.564-.834-1.675-.31-2.44a.396.396 0 1 0-.653-.447 2.655 2.655 0 0 0-.454 1.65c-.48.053-.927.212-1.322.457a3.006 3.006 0 0 1-.901-2.216l.006-3.384.007-3.429v-.031a3.047 3.047 0 0 1 .65-1.932 3.173 3.173 0 0 0 1.908.67c.877.01 1.67-.346 2.273-.929Z" fill="#fff"/><defs><linearGradient id="paint0_linear_1479_19871" x1="0" y1="0" x2="30.577" y2="0" gradientUnits="userSpaceOnUse"><stop stop-color="#fff"/><stop offset="1" stop-color="#fff"/></linearGradient></defs></svg>